<?xml version="1.0" encoding="utf-8"?>
<!-- Generator: Adobe Illustrator 19.0.0, SVG Export Plug-In . SVG Version: 6.00 Build 0)  -->
<svg version="1.1" xmlns="http://www.w3.org/2000/svg" xmlns:xlink="http://www.w3.org/1999/xlink" x="0px" y="0px"
	 viewBox="0 0 300 75" style="enable-background:new 0 0 300 75;" xml:space="preserve">
<g id="Warstwa_1">
	<g id="XMLID_1_">
		<polygon id="XMLID_20_" class="st0" points="58.7,70 42.2,70 42.2,61 58.7,61 58.7,70 		"/>
		<polygon id="XMLID_19_" class="st1" points="69,70.9 31.9,70.9 31.9,70 69,70 69,70.9 		"/>
		<polygon id="XMLID_18_" class="st2" points="58.7,64.3 42.2,64.3 42.2,61 58.7,61 58.7,64.3 		"/>
		<path id="XMLID_17_" class="st3" d="M96.8,56.9c0,2.3-1.8,4.1-4.1,4.1H8.1C5.9,61,4,59.1,4,56.9V8.4c0-2.3,1.8-4.1,4.1-4.1h84.6
			c2.3,0,4.1,1.8,4.1,4.1V56.9L96.8,56.9z"/>
		<g>
			<defs>
				<rect id="XMLID_15_" x="4" y="4.2" width="93.2" height="66.7"/>
			</defs>
			<clipPath id="XMLID_22_">
				<use xlink:href="#XMLID_15_"  style="overflow:visible;"/>
			</clipPath>
			<path id="XMLID_16_" class="st4" d="M96.8,56.9c0,2.3-1.8,4.1-4.1,4.1H8.1C5.9,61,4,59.1,4,56.9V8.4c0-2.3,1.8-4.1,4.1-4.1h84.6
				c2.3,0,4.1,1.8,4.1,4.1V56.9L96.8,56.9z"/>
		</g>
		<path id="XMLID_14_" class="st5" d="M96.8,56.9c0,2.3-1.8,4.1-4.1,4.1H8.1C5.9,61,92.7,4.3,92.7,4.3c2.3,0,4.1,1.8,4.1,4.1V56.9
			L96.8,56.9z"/>
		<polygon id="XMLID_13_" class="st6" points="8,56.8 8,8.1 92.9,8.1 92.9,56.8 8,56.8 		"/>
		<path d="M93,8H7.9v48.9H93V8L93,8L93,8z M92.8,8.2v48.6H8.1V8.2H92.8"/>
		<path id="XMLID_10_" class="st7" d="M51.3,6.3c0,0.5-0.4,0.9-0.9,0.9s-0.9-0.4-0.9-0.9c0-0.5,0.4-0.9,0.9-0.9S51.3,5.8,51.3,6.3
			L51.3,6.3z"/>
		<path id="XMLID_9_" d="M50.8,6.3c0,0.2-0.2,0.4-0.4,0.4c-0.2,0-0.4-0.2-0.4-0.4c0-0.2,0.2-0.4,0.4-0.4C50.7,5.9,50.8,6.1,50.8,6.3
			L50.8,6.3z"/>
		<polygon id="XMLID_8_" class="st6" points="97.2,56.7 92.2,56.7 92.2,8.2 97.2,8.2 97.2,56.7 		"/>
	</g>
</g>

</svg>
